<svg xmlns="http://www.w3.org/2000/svg" width="900" height="280" viewBox="0 0 900 280">
  <rect width="900" height="280" rx="24" fill="#FFFFFF"/>
  <rect x="0" y="0" width="18" height="280" rx="9" fill="#8B6CC1"/>
  <text x="50" y="58" font-family="Malgun Gothic, sans-serif" font-size="34" font-weight="800" fill="#111827">개인 방문</text>
  <text x="50" y="96" font-family="Malgun Gothic, sans-serif" font-size="20" fill="#6B7280">지인·가족·이웃·약속 등 만남 목적이 명확함</text>
  <rect x="34" y="122" width="832" height="130" rx="18" fill="#F6F7F9"/>
  <circle cx="155" cy="160" r="21" fill="#8B6CC1"/>
  <path d="M121 235 Q155 190 189 235" fill="none" stroke="#8B6CC1" stroke-width="18" stroke-linecap="round"/><circle cx="300" cy="160" r="21" fill="#4F81BD"/>
  <path d="M266 235 Q300 190 334 235" fill="none" stroke="#4F81BD" stroke-width="18" stroke-linecap="round"/><path d="M440 144 h270 a18 18 0 0 1 18 18 v55 a18 18 0 0 1-18 18 h-170 l-30 24 8-24 h-78 a18 18 0 0 1-18-18 v-55 a18 18 0 0 1 18-18z" fill="#8B6CC1"/>
  <text x="575" y="198" text-anchor="middle" font-family="Malgun Gothic, sans-serif" font-size="24" font-weight="700" fill="#FFFFFF">만나러 왔어요</text>
  </svg>