<svg xmlns="http://www.w3.org/2000/svg" width="1500" height="3420" viewBox="0 0 1500 3420">
<rect width="1500" height="3420" rx="32" fill="#F7F9FC"/>
<text x="750" y="66" text-anchor="middle" font-family="Malgun Gothic, sans-serif" font-size="42" font-weight="900" fill="#111827">무인현관 상황 분류 결정 트리</text>
<text x="750" y="108" text-anchor="middle" font-family="Malgun Gothic, sans-serif" font-size="22" fill="#6B7280">아니오는 아래로 진행하고 예는 옆의 분류 결과로 이동</text>

<rect x="500" y="145" width="440" height="92" rx="20" fill="#203864" stroke="#203864" stroke-width="5"/>
  <text x="720" y="188" text-anchor="middle" font-family="Malgun Gothic, sans-serif" font-size="28" font-weight="800" fill="#FFFFFF">이벤트 시작</text>
  <text x="720" y="223" text-anchor="middle" font-family="Malgun Gothic, sans-serif" font-size="20" fill="#F3F4F6">ToF 감지 또는 호출벨</text>
<line x1="720" y1="237" x2="720" y2="295" stroke="#203864" stroke-width="5"/>

<polygon points="720,305 970,390 720,475 470,390" fill="#FFFFFF" stroke="#203864" stroke-width="5"/>
  <text x="720" y="384" text-anchor="middle" font-family="Malgun Gothic, sans-serif" font-size="25" font-weight="800" fill="#111827">긴급 또는 위험 신호인가</text>
  <text x="720" y="418" text-anchor="middle" font-family="Malgun Gothic, sans-serif" font-size="18" fill="#6B7280">화재·구조·위협·기기 접촉·의심 물품</text>
<polyline points="970,390 1110,390 1110,310" fill="none" stroke="#C94C4C" stroke-width="5" stroke-linejoin="round"/>
<rect x="983" y="347" width="68" height="36" rx="12" fill="#FFFFFF"/>
  <text x="1017" y="374" text-anchor="middle" font-family="Malgun Gothic, sans-serif" font-size="20" font-weight="800" fill="#C94C4C">예</text>
<rect x="1110" y="245" width="330" height="130" rx="20" fill="#C94C4C" stroke="#C94C4C" stroke-width="5"/>
  <text x="1275" y="288" text-anchor="middle" font-family="Malgun Gothic, sans-serif" font-size="25" font-weight="800" fill="#FFFFFF">안전 확인 필요</text>
  <text x="1275" y="323" text-anchor="middle" font-family="Malgun Gothic, sans-serif" font-size="20" fill="#F3F4F6">우선 알림·자동 개방 금지</text>
<line x1="720" y1="475" x2="720" y2="555" stroke="#203864" stroke-width="5"/>
<rect x="728" y="497" width="68" height="36" rx="12" fill="#FFFFFF"/>
  <text x="762" y="524" text-anchor="middle" font-family="Malgun Gothic, sans-serif" font-size="20" font-weight="800" fill="#203864">아니오</text>

<polygon points="720,570 940,650 720,730 500,650" fill="#FFFFFF" stroke="#203864" stroke-width="5"/>
  <text x="720" y="644" text-anchor="middle" font-family="Malgun Gothic, sans-serif" font-size="25" font-weight="800" fill="#111827">사람이 감지되었는가</text>
  <text x="720" y="678" text-anchor="middle" font-family="Malgun Gothic, sans-serif" font-size="18" fill="#6B7280">YOLO와 ToF 결과 확인</text>
<polyline points="500,650 300,650 300,760" fill="none" stroke="#E58C3A" stroke-width="5" stroke-linejoin="round"/>
<rect x="376" y="607" width="68" height="36" rx="12" fill="#FFFFFF"/>
  <text x="410" y="634" text-anchor="middle" font-family="Malgun Gothic, sans-serif" font-size="20" font-weight="800" fill="#E58C3A">아니오</text>
<polygon points="300,780 480,855 300,930 120,855" fill="#FFFFFF" stroke="#203864" stroke-width="5"/>
  <text x="300" y="863" text-anchor="middle" font-family="Malgun Gothic, sans-serif" font-size="25" font-weight="800" fill="#111827">물품이 감지되었는가</text>
  
<polyline points="120,855 55,855 55,980" fill="none" stroke="#6B7280" stroke-width="5" stroke-linejoin="round"/>
<rect x="61" y="812" width="68" height="36" rx="12" fill="#FFFFFF"/>
  <text x="95" y="839" text-anchor="middle" font-family="Malgun Gothic, sans-serif" font-size="20" font-weight="800" fill="#6B7280">아니오</text>
<rect x="35" y="980" width="310" height="112" rx="20" fill="#FFFFFF" stroke="#6B7280" stroke-width="5"/>
  <text x="190" y="1023" text-anchor="middle" font-family="Malgun Gothic, sans-serif" font-size="25" font-weight="800" fill="#111827">이벤트 종료</text>
  <text x="190" y="1058" text-anchor="middle" font-family="Malgun Gothic, sans-serif" font-size="20" fill="#6B7280">오탐 또는 이미 이탈</text>
<polyline points="480,855 535,855 535,980" fill="none" stroke="#E58C3A" stroke-width="5" stroke-linejoin="round"/>
<rect x="476" y="812" width="68" height="36" rx="12" fill="#FFFFFF"/>
  <text x="510" y="839" text-anchor="middle" font-family="Malgun Gothic, sans-serif" font-size="20" font-weight="800" fill="#E58C3A">예</text>
<rect x="375" y="980" width="320" height="112" rx="20" fill="#FFF1E2" stroke="#E58C3A" stroke-width="5"/>
  <text x="535" y="1023" text-anchor="middle" font-family="Malgun Gothic, sans-serif" font-size="25" font-weight="800" fill="#111827">물품만 있음</text>
  <text x="535" y="1058" text-anchor="middle" font-family="Malgun Gothic, sans-serif" font-size="20" fill="#6B7280">무응답·스냅샷 알림</text>
<line x1="720" y1="730" x2="720" y2="1140" stroke="#203864" stroke-width="5"/>
<rect x="728" y="782" width="68" height="36" rx="12" fill="#FFFFFF"/>
  <text x="762" y="809" text-anchor="middle" font-family="Malgun Gothic, sans-serif" font-size="20" font-weight="800" fill="#4F81BD">예</text>

<polygon points="720,1145 950,1225 720,1305 490,1225" fill="#FFFFFF" stroke="#203864" stroke-width="5"/>
  <text x="720" y="1219" text-anchor="middle" font-family="Malgun Gothic, sans-serif" font-size="25" font-weight="800" fill="#111827">STT가 유효한가</text>
  <text x="720" y="1253" text-anchor="middle" font-family="Malgun Gothic, sans-serif" font-size="18" fill="#6B7280">발화 존재·전사 가능·목적 단서 확인</text>
<polyline points="950,1225 1110,1225 1110,1150" fill="none" stroke="#6B7280" stroke-width="5" stroke-linejoin="round"/>
<rect x="976" y="1182" width="68" height="36" rx="12" fill="#FFFFFF"/>
  <text x="1010" y="1209" text-anchor="middle" font-family="Malgun Gothic, sans-serif" font-size="20" font-weight="800" fill="#6B7280">아니오</text>
<rect x="1110" y="1090" width="330" height="125" rx="20" fill="#FFFFFF" stroke="#6B7280" stroke-width="5"/>
  <text x="1275" y="1133" text-anchor="middle" font-family="Malgun Gothic, sans-serif" font-size="25" font-weight="800" fill="#111827">기타·판단 불가</text>
  <text x="1275" y="1168" text-anchor="middle" font-family="Malgun Gothic, sans-serif" font-size="20" fill="#6B7280">무응답·소음·STT 실패</text>
<line x1="720" y1="1305" x2="720" y2="1390" stroke="#203864" stroke-width="5"/>
<rect x="724" y="1327" width="68" height="36" rx="12" fill="#FFFFFF"/>
  <text x="758" y="1354" text-anchor="middle" font-family="Malgun Gothic, sans-serif" font-size="20" font-weight="800" fill="#4F81BD">예</text>

<polygon points="720,1407.5 935,1480 720,1552.5 505,1480" fill="#FFFFFF" stroke="#203864" stroke-width="5"/>
  <text x="720" y="1474" text-anchor="middle" font-family="Malgun Gothic, sans-serif" font-size="25" font-weight="800" fill="#111827">수거 목적이 명확한가</text>
  <text x="720" y="1508" text-anchor="middle" font-family="Malgun Gothic, sans-serif" font-size="18" fill="#6B7280">반품·회수·교환·수거</text>
<polyline points="935,1480 1100,1480" fill="none" stroke="#4F9D69" stroke-width="5" stroke-linejoin="round"/>
<rect x="981" y="1437" width="68" height="36" rx="12" fill="#FFFFFF"/>
  <text x="1015" y="1464" text-anchor="middle" font-family="Malgun Gothic, sans-serif" font-size="20" font-weight="800" fill="#4F9D69">예</text>
<rect x="1100" y="1420" width="330" height="120" rx="20" fill="#E8F5EC" stroke="#4F9D69" stroke-width="5"/>
  <text x="1265" y="1463" text-anchor="middle" font-family="Malgun Gothic, sans-serif" font-size="25" font-weight="800" fill="#111827">수거</text>
  <text x="1265" y="1498" text-anchor="middle" font-family="Malgun Gothic, sans-serif" font-size="20" fill="#6B7280">반품·용기·폐가전 등</text>
<line x1="720" y1="1552" x2="720" y2="1635" stroke="#203864" stroke-width="5"/>
<rect x="726" y="1572" width="68" height="36" rx="12" fill="#FFFFFF"/>
  <text x="760" y="1599" text-anchor="middle" font-family="Malgun Gothic, sans-serif" font-size="20" font-weight="800" fill="#203864">아니오</text>

<polygon points="720,1652.5 935,1725 720,1797.5 505,1725" fill="#FFFFFF" stroke="#203864" stroke-width="5"/>
  <text x="720" y="1719" text-anchor="middle" font-family="Malgun Gothic, sans-serif" font-size="25" font-weight="800" fill="#111827">음식 배달인가</text>
  <text x="720" y="1753" text-anchor="middle" font-family="Malgun Gothic, sans-serif" font-size="18" fill="#6B7280">음식명·주문·배달 앱이 명확함</text>
<polyline points="935,1725 1100,1725" fill="none" stroke="#4F81BD" stroke-width="5" stroke-linejoin="round"/>
<rect x="981" y="1682" width="68" height="36" rx="12" fill="#FFFFFF"/>
  <text x="1015" y="1709" text-anchor="middle" font-family="Malgun Gothic, sans-serif" font-size="20" font-weight="800" fill="#4F81BD">예</text>
<rect x="1100" y="1665" width="330" height="120" rx="20" fill="#EAF2F8" stroke="#4F81BD" stroke-width="5"/>
  <text x="1265" y="1708" text-anchor="middle" font-family="Malgun Gothic, sans-serif" font-size="25" font-weight="800" fill="#111827">음식 배달</text>
  <text x="1265" y="1743" text-anchor="middle" font-family="Malgun Gothic, sans-serif" font-size="20" fill="#6B7280">음식·음료·장보기</text>
<line x1="720" y1="1798" x2="720" y2="1880" stroke="#203864" stroke-width="5"/>
<rect x="726" y="1817" width="68" height="36" rx="12" fill="#FFFFFF"/>
  <text x="760" y="1844" text-anchor="middle" font-family="Malgun Gothic, sans-serif" font-size="20" font-weight="800" fill="#203864">아니오</text>

<polygon points="720,1897.5 935,1970 720,2042.5 505,1970" fill="#FFFFFF" stroke="#203864" stroke-width="5"/>
  <text x="720" y="1964" text-anchor="middle" font-family="Malgun Gothic, sans-serif" font-size="25" font-weight="800" fill="#111827">택배 또는 우편인가</text>
  <text x="720" y="1998" text-anchor="middle" font-family="Malgun Gothic, sans-serif" font-size="18" fill="#6B7280">택배·소포·등기·배송·퀵</text>
<polyline points="935,1970 1100,1970" fill="none" stroke="#4F81BD" stroke-width="5" stroke-linejoin="round"/>
<rect x="981" y="1927" width="68" height="36" rx="12" fill="#FFFFFF"/>
  <text x="1015" y="1954" text-anchor="middle" font-family="Malgun Gothic, sans-serif" font-size="20" font-weight="800" fill="#4F81BD">예</text>
<rect x="1100" y="1910" width="330" height="120" rx="20" fill="#EAF2F8" stroke="#4F81BD" stroke-width="5"/>
  <text x="1265" y="1953" text-anchor="middle" font-family="Malgun Gothic, sans-serif" font-size="25" font-weight="800" fill="#111827">택배·우편</text>
  <text x="1265" y="1988" text-anchor="middle" font-family="Malgun Gothic, sans-serif" font-size="20" fill="#6B7280">소포·등기·퀵·선물</text>
<line x1="720" y1="2043" x2="720" y2="2125" stroke="#203864" stroke-width="5"/>
<rect x="726" y="2062" width="68" height="36" rx="12" fill="#FFFFFF"/>
  <text x="760" y="2089" text-anchor="middle" font-family="Malgun Gothic, sans-serif" font-size="20" font-weight="800" fill="#203864">아니오</text>

<polygon points="720,2142.5 935,2215 720,2287.5 505,2215" fill="#FFFFFF" stroke="#203864" stroke-width="5"/>
  <text x="720" y="2209" text-anchor="middle" font-family="Malgun Gothic, sans-serif" font-size="25" font-weight="800" fill="#111827">공공기관 방문인가</text>
  <text x="720" y="2243" text-anchor="middle" font-family="Malgun Gothic, sans-serif" font-size="18" fill="#6B7280">경찰·소방·구급·구청·법원</text>
<polyline points="935,2215 1100,2215" fill="none" stroke="#C94C4C" stroke-width="5" stroke-linejoin="round"/>
<rect x="981" y="2172" width="68" height="36" rx="12" fill="#FFFFFF"/>
  <text x="1015" y="2199" text-anchor="middle" font-family="Malgun Gothic, sans-serif" font-size="20" font-weight="800" fill="#C94C4C">예</text>
<rect x="1100" y="2155" width="330" height="120" rx="20" fill="#FCECEC" stroke="#C94C4C" stroke-width="5"/>
  <text x="1265" y="2198" text-anchor="middle" font-family="Malgun Gothic, sans-serif" font-size="25" font-weight="800" fill="#111827">공공 방문</text>
  <text x="1265" y="2233" text-anchor="middle" font-family="Malgun Gothic, sans-serif" font-size="20" fill="#6B7280">신원과 용건 기록</text>
<line x1="720" y1="2288" x2="720" y2="2370" stroke="#203864" stroke-width="5"/>
<rect x="726" y="2307" width="68" height="36" rx="12" fill="#FFFFFF"/>
  <text x="760" y="2334" text-anchor="middle" font-family="Malgun Gothic, sans-serif" font-size="20" font-weight="800" fill="#203864">아니오</text>

<polygon points="720,2387.5 935,2460 720,2532.5 505,2460" fill="#FFFFFF" stroke="#203864" stroke-width="5"/>
  <text x="720" y="2454" text-anchor="middle" font-family="Malgun Gothic, sans-serif" font-size="25" font-weight="800" fill="#111827">작업 목적이 명확한가</text>
  <text x="720" y="2488" text-anchor="middle" font-family="Malgun Gothic, sans-serif" font-size="18" fill="#6B7280">관리·점검·수리·설치·이사·청소</text>
<polyline points="935,2460 1100,2460" fill="none" stroke="#6B7280" stroke-width="5" stroke-linejoin="round"/>
<rect x="981" y="2417" width="68" height="36" rx="12" fill="#FFFFFF"/>
  <text x="1015" y="2444" text-anchor="middle" font-family="Malgun Gothic, sans-serif" font-size="20" font-weight="800" fill="#6B7280">예</text>
<rect x="1100" y="2400" width="330" height="120" rx="20" fill="#FFFFFF" stroke="#6B7280" stroke-width="5"/>
  <text x="1265" y="2443" text-anchor="middle" font-family="Malgun Gothic, sans-serif" font-size="24" font-weight="800" fill="#111827">작업·관리 방문</text>
  <text x="1265" y="2478" text-anchor="middle" font-family="Malgun Gothic, sans-serif" font-size="20" fill="#6B7280">예약 여부는 별도 확인</text>
<line x1="720" y1="2533" x2="720" y2="2615" stroke="#203864" stroke-width="5"/>
<rect x="726" y="2552" width="68" height="36" rx="12" fill="#FFFFFF"/>
  <text x="760" y="2579" text-anchor="middle" font-family="Malgun Gothic, sans-serif" font-size="20" font-weight="800" fill="#203864">아니오</text>

<polygon points="720,2632.5 935,2705 720,2777.5 505,2705" fill="#FFFFFF" stroke="#203864" stroke-width="5"/>
  <text x="720" y="2699" text-anchor="middle" font-family="Malgun Gothic, sans-serif" font-size="25" font-weight="800" fill="#111827">개인 만남 목적인가</text>
  <text x="720" y="2733" text-anchor="middle" font-family="Malgun Gothic, sans-serif" font-size="18" fill="#6B7280">지인·가족·이웃·약속</text>
<polyline points="935,2705 1100,2705" fill="none" stroke="#8064A2" stroke-width="5" stroke-linejoin="round"/>
<rect x="981" y="2662" width="68" height="36" rx="12" fill="#FFFFFF"/>
  <text x="1015" y="2689" text-anchor="middle" font-family="Malgun Gothic, sans-serif" font-size="20" font-weight="800" fill="#8064A2">예</text>
<rect x="1100" y="2645" width="330" height="120" rx="20" fill="#F2ECFA" stroke="#8064A2" stroke-width="5"/>
  <text x="1265" y="2688" text-anchor="middle" font-family="Malgun Gothic, sans-serif" font-size="25" font-weight="800" fill="#111827">개인 방문</text>
  <text x="1265" y="2723" text-anchor="middle" font-family="Malgun Gothic, sans-serif" font-size="20" fill="#6B7280">입주자 본인 여부는 미확정</text>
<line x1="720" y1="2778" x2="720" y2="2860" stroke="#203864" stroke-width="5"/>
<rect x="726" y="2797" width="68" height="36" rx="12" fill="#FFFFFF"/>
  <text x="760" y="2824" text-anchor="middle" font-family="Malgun Gothic, sans-serif" font-size="20" font-weight="800" fill="#203864">아니오</text>

<polygon points="720,2877.5 935,2950 720,3022.5 505,2950" fill="#FFFFFF" stroke="#203864" stroke-width="5"/>
  <text x="720" y="2944" text-anchor="middle" font-family="Malgun Gothic, sans-serif" font-size="25" font-weight="800" fill="#111827">영업 또는 홍보 목적인가</text>
  <text x="720" y="2978" text-anchor="middle" font-family="Malgun Gothic, sans-serif" font-size="18" fill="#6B7280">판매·종교·설문·모금·정치 홍보</text>
<polyline points="935,2950 1100,2950" fill="none" stroke="#E58C3A" stroke-width="5" stroke-linejoin="round"/>
<rect x="981" y="2907" width="68" height="36" rx="12" fill="#FFFFFF"/>
  <text x="1015" y="2934" text-anchor="middle" font-family="Malgun Gothic, sans-serif" font-size="20" font-weight="800" fill="#E58C3A">예</text>
<rect x="1100" y="2890" width="330" height="120" rx="20" fill="#FFF1E2" stroke="#E58C3A" stroke-width="5"/>
  <text x="1265" y="2933" text-anchor="middle" font-family="Malgun Gothic, sans-serif" font-size="25" font-weight="800" fill="#111827">영업·홍보 방문</text>
  <text x="1265" y="2968" text-anchor="middle" font-family="Malgun Gothic, sans-serif" font-size="20" fill="#6B7280">권유 목적 기록</text>
<line x1="720" y1="3023" x2="720" y2="3105" stroke="#203864" stroke-width="5"/>
<rect x="726" y="3042" width="68" height="36" rx="12" fill="#FFFFFF"/>
  <text x="760" y="3069" text-anchor="middle" font-family="Malgun Gothic, sans-serif" font-size="20" font-weight="800" fill="#203864">아니오</text>

<polygon points="720,3122.5 935,3195 720,3267.5 505,3195" fill="#FFFFFF" stroke="#203864" stroke-width="5"/>
  <text x="720" y="3189" text-anchor="middle" font-family="Malgun Gothic, sans-serif" font-size="25" font-weight="800" fill="#111827">주소 또는 호출 착오인가</text>
  <text x="720" y="3223" text-anchor="middle" font-family="Malgun Gothic, sans-serif" font-size="18" fill="#6B7280">다른 집·수령인·호수·잘못 누른 벨</text>
<polyline points="505,3195 355,3195" fill="none" stroke="#6C8EBF" stroke-width="5" stroke-linejoin="round"/>
<rect x="396" y="3152" width="68" height="36" rx="12" fill="#FFFFFF"/>
  <text x="430" y="3179" text-anchor="middle" font-family="Malgun Gothic, sans-serif" font-size="20" font-weight="800" fill="#6C8EBF">예</text>
<rect x="45" y="3135" width="310" height="120" rx="20" fill="#EDF3FA" stroke="#6C8EBF" stroke-width="5"/>
  <text x="200" y="3178" text-anchor="middle" font-family="Malgun Gothic, sans-serif" font-size="25" font-weight="800" fill="#111827">잘못 방문</text>
  <text x="200" y="3213" text-anchor="middle" font-family="Malgun Gothic, sans-serif" font-size="20" fill="#6B7280">주소 착오·잘못 호출</text>
<line x1="720" y1="3268" x2="720" y2="3300" stroke="#203864" stroke-width="5"/>
<rect x="726" y="3267" width="68" height="36" rx="12" fill="#FFFFFF"/>
  <text x="760" y="3294" text-anchor="middle" font-family="Malgun Gothic, sans-serif" font-size="20" font-weight="800" fill="#6B7280">아니오</text>
<rect x="535" y="3300" width="370" height="90" rx="20" fill="#FFFFFF" stroke="#6B7280" stroke-width="5"/>
  <text x="720" y="3343" text-anchor="middle" font-family="Malgun Gothic, sans-serif" font-size="24" font-weight="800" fill="#111827">기타·판단 불가</text>
  <text x="720" y="3378" text-anchor="middle" font-family="Malgun Gothic, sans-serif" font-size="20" fill="#6B7280">사용자 확인 필요</text>
</svg>