# DataCat thin soft-front enclosure Rev H; coordinates in millimetres
mtllib rounded_enclosure.mtl
o 04_black_visor
usemtl 04_black_visor
v -31.612720 66.723877 48.799999
v -29.656761 65.416946 48.799999
v -28.042679 64.701469 48.799999
v -27.483414 64.516716 48.799999
v -28.592201 64.913445 48.799999
v -29.130663 65.152130 48.799999
v -30.666845 66.022362 48.799999
v -30.169231 65.707260 48.799999
v -31.148390 66.361511 48.799999
v -32.058708 67.108589 48.799999
v -32.485283 67.514717 48.799999
v -32.891415 67.941292 48.799999
v -33.276127 68.387283 48.799999
v -33.977634 69.333160 48.799999
v -34.292744 69.830765 48.799999
v -33.638489 68.851608 48.799999
v -26.915764 64.359627 48.799999
v -26.341084 64.230576 48.799999
v -25.760765 64.129883 48.799999
v -25.176207 64.057785 48.799999
v -24.588812 64.014458 48.799999
v -24.000000 64.000000 48.799999
v -22.709539 69.042908 48.799999
v -23.363960 69.636040 48.799999
v -20.444151 67.685081 48.799999
v -21.242571 68.062706 48.799999
v -19.612562 67.387535 48.799999
v -18.755814 67.172935 48.799999
v -22.000132 68.516777 48.799999
v -34.583054 70.343239 48.799999
v -35.086555 71.407799 48.799999
v -34.847870 70.869339 48.799999
v -35.298531 71.957321 48.799999
v -35.483284 72.516586 48.799999
v -35.640373 73.084236 48.799999
v -35.769424 73.658913 48.799999
v -35.870117 74.239235 48.799999
v -35.942215 74.823792 48.799999
v -35.985546 75.411186 48.799999
v -23.957094 70.290459 48.799999
v -24.483227 70.999870 48.799999
v -24.937292 71.757431 48.799999
v -25.314917 72.555847 48.799999
v -25.612463 73.387436 48.799999
v -25.827068 74.244186 48.799999
v -25.956663 75.117844 48.799999
v -17.882154 67.043335 48.799999
v -17.000000 67.000000 48.799999
v -16.117846 67.043335 48.799999
v -15.244187 67.172935 48.799999
v -14.387439 67.387535 48.799999
v -13.555850 67.685081 48.799999
v -12.757429 68.062706 48.799999
v -11.999867 68.516777 48.799999
v -11.290461 69.042908 48.799999
v -10.636039 69.636040 48.799999
v -10.042906 70.290459 48.799999
v -9.516773 70.999870 48.799999
v -9.062709 71.757431 48.799999
v -8.685084 72.555847 48.799999
v -8.387537 73.387436 48.799999
v -8.172933 74.244186 48.799999
v -8.043338 75.117844 48.799999
v -31.612720 66.723877 50.000000
v -29.656761 65.416946 50.000000
v -28.042679 64.701469 50.000000
v -27.483414 64.516716 50.000000
v -28.592201 64.913445 50.000000
v -29.130663 65.152130 50.000000
v -30.666845 66.022362 50.000000
v -30.169231 65.707260 50.000000
v -31.148390 66.361511 50.000000
v -32.058708 67.108589 50.000000
v -32.485283 67.514717 50.000000
v -32.891415 67.941292 50.000000
v -33.276127 68.387283 50.000000
v -33.977634 69.333160 50.000000
v -34.292744 69.830765 50.000000
v -33.638489 68.851608 50.000000
v -26.915764 64.359627 50.000000
v -26.341084 64.230576 50.000000
v -25.760765 64.129883 50.000000
v -25.176207 64.057785 50.000000
v -24.588812 64.014458 50.000000
v -24.000000 64.000000 50.000000
v -22.709539 69.042908 50.000000
v -23.363960 69.636040 50.000000
v -20.444151 67.685081 50.000000
v -21.242571 68.062706 50.000000
v -19.612562 67.387535 50.000000
v -18.755814 67.172935 50.000000
v -22.000132 68.516777 50.000000
v -34.583054 70.343239 50.000000
v -35.086555 71.407799 50.000000
v -34.847870 70.869339 50.000000
v -35.298531 71.957321 50.000000
v -35.483284 72.516586 50.000000
v -35.640373 73.084236 50.000000
v -35.769424 73.658913 50.000000
v -35.870117 74.239235 50.000000
v -35.942215 74.823792 50.000000
v -35.985546 75.411186 50.000000
v -23.957094 70.290459 50.000000
v -24.483227 70.999870 50.000000
v -24.937292 71.757431 50.000000
v -25.314917 72.555847 50.000000
v -25.612463 73.387436 50.000000
v -25.827068 74.244186 50.000000
v -25.956663 75.117844 50.000000
v -17.882154 67.043335 50.000000
v -17.000000 67.000000 50.000000
v -16.117846 67.043335 50.000000
v -15.244187 67.172935 50.000000
v -14.387439 67.387535 50.000000
v -13.555850 67.685081 50.000000
v -12.757429 68.062706 50.000000
v -11.999867 68.516777 50.000000
v -11.290461 69.042908 50.000000
v -10.636039 69.636040 50.000000
v -10.042906 70.290459 50.000000
v -9.516773 70.999870 50.000000
v -9.062709 71.757431 50.000000
v -8.685084 72.555847 50.000000
v -8.387537 73.387436 50.000000
v -8.172933 74.244186 50.000000
v -8.043338 75.117844 50.000000
v -36.000000 76.000000 48.799999
v -35.985546 76.588814 48.799999
v -35.942215 77.176208 48.799999
v -35.870117 77.760765 48.799999
v -35.769424 78.341087 48.799999
v -35.640373 78.915764 48.799999
v -35.483284 79.483414 48.799999
v -35.298531 80.042679 48.799999
v -35.086555 80.592201 48.799999
v -34.847870 81.130661 48.799999
v -34.583054 81.656761 48.799999
v -26.000000 76.000000 48.799999
v -25.956663 76.882156 48.799999
v -25.827068 77.755814 48.799999
v -25.612463 78.612564 48.799999
v -25.314917 79.444153 48.799999
v -24.937292 80.242569 48.799999
v -24.483227 81.000130 48.799999
v -23.957094 81.709541 48.799999
v -34.292744 82.169235 48.799999
v -33.977634 82.666840 48.799999
v -33.638489 83.148392 48.799999
v -33.276127 83.612717 48.799999
v -32.891415 84.058708 48.799999
v -32.485283 84.485283 48.799999
v -32.058708 84.891411 48.799999
v -31.612720 85.276123 48.799999
v -31.148390 85.638489 48.799999
v -30.666845 85.977638 48.799999
v -30.169231 86.292740 48.799999
v -29.656761 86.583054 48.799999
v -29.130663 86.847870 48.799999
v -28.592201 87.086555 48.799999
v -28.042679 87.298531 48.799999
v -27.483414 87.483284 48.799999
v -23.363960 82.363960 48.799999
v -22.709539 82.957092 48.799999
v -22.000132 83.483223 48.799999
v -21.242571 83.937294 48.799999
v -20.444151 84.314919 48.799999
v -19.612562 84.612465 48.799999
v -18.755814 84.827065 48.799999
v -26.915764 87.640373 48.799999
v -26.341084 87.769424 48.799999
v -25.760765 87.870117 48.799999
v -25.176207 87.942215 48.799999
v -24.588812 87.985542 48.799999
v -24.000000 88.000000 48.799999
v -9.062709 80.242569 48.799999
v -9.516773 81.000130 48.799999
v -10.042906 81.709541 48.799999
v -8.000000 76.000000 48.799999
v -8.043338 76.882156 48.799999
v -8.172933 77.755814 48.799999
v -8.387537 78.612564 48.799999
v -8.685084 79.444153 48.799999
v -17.882154 84.956665 48.799999
v -16.117846 84.956665 48.799999
v -15.244187 84.827065 48.799999
v -14.387439 84.612465 48.799999
v -13.555850 84.314919 48.799999
v -11.290461 82.957092 48.799999
v -11.999867 83.483223 48.799999
v -10.636039 82.363960 48.799999
v -12.757429 83.937294 48.799999
v -17.000000 85.000000 48.799999
v -36.000000 76.000000 50.000000
v -35.985546 76.588814 50.000000
v -35.942215 77.176208 50.000000
v -35.870117 77.760765 50.000000
v -35.769424 78.341087 50.000000
v -35.640373 78.915764 50.000000
v -35.483284 79.483414 50.000000
v -35.298531 80.042679 50.000000
v -35.086555 80.592201 50.000000
v -34.847870 81.130661 50.000000
v -34.583054 81.656761 50.000000
v -26.000000 76.000000 50.000000
v -25.956663 76.882156 50.000000
v -25.827068 77.755814 50.000000
v -25.612463 78.612564 50.000000
v -25.314917 79.444153 50.000000
v -24.937292 80.242569 50.000000
v -24.483227 81.000130 50.000000
v -23.957094 81.709541 50.000000
v -34.292744 82.169235 50.000000
v -33.977634 82.666840 50.000000
v -33.638489 83.148392 50.000000
v -33.276127 83.612717 50.000000
v -32.891415 84.058708 50.000000
v -32.485283 84.485283 50.000000
v -32.058708 84.891411 50.000000
v -31.612720 85.276123 50.000000
v -31.148390 85.638489 50.000000
v -30.666845 85.977638 50.000000
v -30.169231 86.292740 50.000000
v -29.656761 86.583054 50.000000
v -29.130663 86.847870 50.000000
v -28.592201 87.086555 50.000000
v -28.042679 87.298531 50.000000
v -27.483414 87.483284 50.000000
v -23.363960 82.363960 50.000000
v -22.709539 82.957092 50.000000
v -22.000132 83.483223 50.000000
v -21.242571 83.937294 50.000000
v -20.444151 84.314919 50.000000
v -19.612562 84.612465 50.000000
v -18.755814 84.827065 50.000000
v -26.915764 87.640373 50.000000
v -26.341084 87.769424 50.000000
v -25.760765 87.870117 50.000000
v -25.176207 87.942215 50.000000
v -24.588812 87.985542 50.000000
v -24.000000 88.000000 50.000000
v -9.062709 80.242569 50.000000
v -9.516773 81.000130 50.000000
v -10.042906 81.709541 50.000000
v -8.000000 76.000000 50.000000
v -8.043338 76.882156 50.000000
v -8.172933 77.755814 50.000000
v -8.387537 78.612564 50.000000
v -8.685084 79.444153 50.000000
v -17.882154 84.956665 50.000000
v -16.117846 84.956665 50.000000
v -15.244187 84.827065 50.000000
v -14.387439 84.612465 50.000000
v -13.555850 84.314919 50.000000
v -11.290461 82.957092 50.000000
v -11.999867 83.483223 50.000000
v -10.636039 82.363960 50.000000
v -12.757429 83.937294 50.000000
v -17.000000 85.000000 50.000000
v 14.617317 69.076118 48.799999
v 14.572445 69.096008 48.799999
v 14.528604 69.118080 48.799999
v 14.485898 69.142273 48.799999
v 14.404301 69.196793 48.799999
v 14.444428 69.168533 48.799999
v 14.365606 69.226990 48.799999
v 14.663111 69.058456 48.799999
v 14.757019 69.029968 48.799999
v 14.709715 69.043060 48.799999
v 14.853269 69.010826 48.799999
v 14.901984 69.004814 48.799999
v 14.804911 69.019218 48.799999
v 14.950933 69.001205 48.799999
v 15.000000 69.000000 48.799999
v 14.328440 69.259048 48.799999
v 14.292892 69.292892 48.799999
v 14.259048 69.328438 48.799999
v 14.196792 69.404305 48.799999
v 14.226991 69.365608 48.799999
v 14.168531 69.444427 48.799999
v 14.118078 69.528603 48.799999
v 14.142270 69.485901 48.799999
v 14.096011 69.572441 48.799999
v 14.076120 69.617317 48.799999
v 14.058456 69.663109 48.799999
v 14.043059 69.709717 48.799999
v 14.029969 69.757019 48.799999
v 14.019215 69.804909 48.799999
v 14.010824 69.853271 48.799999
v 14.004814 69.901985 48.799999
v 14.001204 69.950935 48.799999
v 14.000000 70.000000 48.799999
v 24.000000 64.000000 48.799999
v 24.588812 64.014458 48.799999
v 25.176207 64.057785 48.799999
v 25.760765 64.129883 48.799999
v 26.341084 64.230576 48.799999
v 26.915764 64.359627 48.799999
v 23.000000 69.000000 48.799999
v 23.049068 69.001205 48.799999
v 23.098017 69.004814 48.799999
v 23.146730 69.010826 48.799999
v 23.195091 69.019218 48.799999
v 23.242981 69.029968 48.799999
v 23.290285 69.043060 48.799999
v 23.336889 69.058456 48.799999
v 23.382683 69.076118 48.799999
v 23.427555 69.096008 48.799999
v 23.471397 69.118080 48.799999
v 23.514103 69.142273 48.799999
v 23.555571 69.168533 48.799999
v 23.595699 69.196793 48.799999
v 23.634394 69.226990 48.799999
v 23.671558 69.259048 48.799999
v 23.707108 69.292892 48.799999
v 23.740952 69.328438 48.799999
v 23.773010 69.365608 48.799999
v 23.803207 69.404305 48.799999
v 23.831470 69.444427 48.799999
v 23.857729 69.485901 48.799999
v 23.881922 69.528603 48.799999
v 23.903990 69.572441 48.799999
v 23.923880 69.617317 48.799999
v 23.941544 69.663109 48.799999
v 23.956940 69.709717 48.799999
v 23.970032 69.757019 48.799999
v 23.980785 69.804909 48.799999
v 23.989176 69.853271 48.799999
v 23.995184 69.901985 48.799999
v 23.998795 69.950935 48.799999
v 27.483414 64.516716 48.799999
v 28.042679 64.701469 48.799999
v 28.592201 64.913445 48.799999
v 29.130663 65.152130 48.799999
v 29.656761 65.416946 48.799999
v 30.169231 65.707260 48.799999
v 30.666845 66.022362 48.799999
v 31.148390 66.361511 48.799999
v 31.612720 66.723877 48.799999
v 32.058708 67.108589 48.799999
v 32.485283 67.514717 48.799999
v 32.891415 67.941292 48.799999
v 33.276127 68.387283 48.799999
v 33.638489 68.851608 48.799999
v 33.977634 69.333160 48.799999
v 34.292744 69.830765 48.799999
v 24.000000 70.000000 48.799999
v 34.583054 70.343239 48.799999
v 34.847870 70.869339 48.799999
v 35.086555 71.407799 48.799999
v 35.298531 71.957321 48.799999
v 35.483284 72.516586 48.799999
v 35.640373 73.084236 48.799999
v 35.769424 73.658913 48.799999
v 35.870117 74.239235 48.799999
v 35.942215 74.823792 48.799999
v 35.985546 75.411186 48.799999
v 14.617317 69.076118 50.000000
v 14.572445 69.096008 50.000000
v 14.528604 69.118080 50.000000
v 14.485898 69.142273 50.000000
v 14.404301 69.196793 50.000000
v 14.444428 69.168533 50.000000
v 14.365606 69.226990 50.000000
v 14.663111 69.058456 50.000000
v 14.757019 69.029968 50.000000
v 14.709715 69.043060 50.000000
v 14.853269 69.010826 50.000000
v 14.901984 69.004814 50.000000
v 14.804911 69.019218 50.000000
v 14.950933 69.001205 50.000000
v 15.000000 69.000000 50.000000
v 14.328440 69.259048 50.000000
v 14.292892 69.292892 50.000000
v 14.259048 69.328438 50.000000
v 14.196792 69.404305 50.000000
v 14.226991 69.365608 50.000000
v 14.168531 69.444427 50.000000
v 14.118078 69.528603 50.000000
v 14.142270 69.485901 50.000000
v 14.096011 69.572441 50.000000
v 14.076120 69.617317 50.000000
v 14.058456 69.663109 50.000000
v 14.043059 69.709717 50.000000
v 14.029969 69.757019 50.000000
v 14.019215 69.804909 50.000000
v 14.010824 69.853271 50.000000
v 14.004814 69.901985 50.000000
v 14.001204 69.950935 50.000000
v 14.000000 70.000000 50.000000
v 24.000000 64.000000 50.000000
v 24.588812 64.014458 50.000000
v 25.176207 64.057785 50.000000
v 25.760765 64.129883 50.000000
v 26.341084 64.230576 50.000000
v 26.915764 64.359627 50.000000
v 23.000000 69.000000 50.000000
v 23.049068 69.001205 50.000000
v 23.098017 69.004814 50.000000
v 23.146730 69.010826 50.000000
v 23.195091 69.019218 50.000000
v 23.242981 69.029968 50.000000
v 23.290285 69.043060 50.000000
v 23.336889 69.058456 50.000000
v 23.382683 69.076118 50.000000
v 23.427555 69.096008 50.000000
v 23.471397 69.118080 50.000000
v 23.514103 69.142273 50.000000
v 23.555571 69.168533 50.000000
v 23.595699 69.196793 50.000000
v 23.634394 69.226990 50.000000
v 23.671558 69.259048 50.000000
v 23.707108 69.292892 50.000000
v 23.740952 69.328438 50.000000
v 23.773010 69.365608 50.000000
v 23.803207 69.404305 50.000000
v 23.831470 69.444427 50.000000
v 23.857729 69.485901 50.000000
v 23.881922 69.528603 50.000000
v 23.903990 69.572441 50.000000
v 23.923880 69.617317 50.000000
v 23.941544 69.663109 50.000000
v 23.956940 69.709717 50.000000
v 23.970032 69.757019 50.000000
v 23.980785 69.804909 50.000000
v 23.989176 69.853271 50.000000
v 23.995184 69.901985 50.000000
v 23.998795 69.950935 50.000000
v 27.483414 64.516716 50.000000
v 28.042679 64.701469 50.000000
v 28.592201 64.913445 50.000000
v 29.130663 65.152130 50.000000
v 29.656761 65.416946 50.000000
v 30.169231 65.707260 50.000000
v 30.666845 66.022362 50.000000
v 31.148390 66.361511 50.000000
v 31.612720 66.723877 50.000000
v 32.058708 67.108589 50.000000
v 32.485283 67.514717 50.000000
v 32.891415 67.941292 50.000000
v 33.276127 68.387283 50.000000
v 33.638489 68.851608 50.000000
v 33.977634 69.333160 50.000000
v 34.292744 69.830765 50.000000
v 24.000000 70.000000 50.000000
v 34.583054 70.343239 50.000000
v 34.847870 70.869339 50.000000
v 35.086555 71.407799 50.000000
v 35.298531 71.957321 50.000000
v 35.483284 72.516586 50.000000
v 35.640373 73.084236 50.000000
v 35.769424 73.658913 50.000000
v 35.870117 74.239235 50.000000
v 35.942215 74.823792 50.000000
v 35.985546 75.411186 50.000000
v 14.000000 82.000000 48.799999
v 14.001204 82.049065 48.799999
v 14.004814 82.098015 48.799999
v 14.010824 82.146729 48.799999
v 14.019215 82.195091 48.799999
v 14.029969 82.242981 48.799999
v 14.043059 82.290283 48.799999
v 14.058456 82.336891 48.799999
v 14.076120 82.382683 48.799999
v 14.096011 82.427559 48.799999
v 14.118078 82.471397 48.799999
v 14.142270 82.514099 48.799999
v 14.168531 82.555573 48.799999
v 14.196792 82.595695 48.799999
v 14.226991 82.634392 48.799999
v 14.259048 82.671562 48.799999
v 14.292892 82.707108 48.799999
v 14.328440 82.740952 48.799999
v 14.365606 82.773010 48.799999
v 14.404301 82.803207 48.799999
v 14.444428 82.831467 48.799999
v 14.485898 82.857727 48.799999
v 14.528604 82.881920 48.799999
v 14.572445 82.903992 48.799999
v 14.617317 82.923882 48.799999
v 14.663111 82.941544 48.799999
v 14.709715 82.956940 48.799999
v 14.757019 82.970032 48.799999
v 14.804911 82.980782 48.799999
v 14.853269 82.989174 48.799999
v 14.901984 82.995186 48.799999
v 14.950933 82.998795 48.799999
v 15.000000 83.000000 48.799999
v 36.000000 76.000000 48.799999
v 35.985546 76.588814 48.799999
v 35.942215 77.176208 48.799999
v 35.870117 77.760765 48.799999
v 35.769424 78.341087 48.799999
v 35.640373 78.915764 48.799999
v 35.483284 79.483414 48.799999
v 35.298531 80.042679 48.799999
v 34.847870 81.130661 48.799999
v 35.086555 80.592201 48.799999
v 34.583054 81.656761 48.799999
v 24.000000 82.000000 48.799999
v 23.998795 82.049065 48.799999
v 23.995184 82.098015 48.799999
v 23.989176 82.146729 48.799999
v 23.980785 82.195091 48.799999
v 23.970032 82.242981 48.799999
v 23.956940 82.290283 48.799999
v 23.941544 82.336891 48.799999
v 23.903990 82.427559 48.799999
v 23.881922 82.471397 48.799999
v 23.857729 82.514099 48.799999
v 23.831470 82.555573 48.799999
v 23.923880 82.382683 48.799999
v 23.803207 82.595695 48.799999
v 23.773010 82.634392 48.799999
v 23.740952 82.671562 48.799999
v 23.671558 82.740952 48.799999
v 23.707108 82.707108 48.799999
v 23.000000 83.000000 48.799999
v 23.049068 82.998795 48.799999
v 23.595699 82.803207 48.799999
v 23.555571 82.831467 48.799999
v 23.471397 82.881920 48.799999
v 23.382683 82.923882 48.799999
v 23.427555 82.903992 48.799999
v 23.514103 82.857727 48.799999
v 23.195091 82.980782 48.799999
v 23.098017 82.995186 48.799999
v 23.146730 82.989174 48.799999
v 23.242981 82.970032 48.799999
v 23.290285 82.956940 48.799999
v 23.336889 82.941544 48.799999
v 23.634394 82.773010 48.799999
v 24.000000 88.000000 48.799999
v 24.588812 87.985542 48.799999
v 25.176207 87.942215 48.799999
v 25.760765 87.870117 48.799999
v 26.341084 87.769424 48.799999
v 26.915764 87.640373 48.799999
v 33.638489 83.148392 48.799999
v 34.292744 82.169235 48.799999
v 33.977634 82.666840 48.799999
v 33.276127 83.612717 48.799999
v 32.891415 84.058708 48.799999
v 32.485283 84.485283 48.799999
v 32.058708 84.891411 48.799999
v 31.148390 85.638489 48.799999
v 30.169231 86.292740 48.799999
v 30.666845 85.977638 48.799999
v 29.130663 86.847870 48.799999
v 28.592201 87.086555 48.799999
v 27.483414 87.483284 48.799999
v 28.042679 87.298531 48.799999
v 29.656761 86.583054 48.799999
v 31.612720 85.276123 48.799999
v 14.000000 82.000000 50.000000
v 14.001204 82.049065 50.000000
v 14.004814 82.098015 50.000000
v 14.010824 82.146729 50.000000
v 14.019215 82.195091 50.000000
v 14.029969 82.242981 50.000000
v 14.043059 82.290283 50.000000
v 14.058456 82.336891 50.000000
v 14.076120 82.382683 50.000000
v 14.096011 82.427559 50.000000
v 14.118078 82.471397 50.000000
v 14.142270 82.514099 50.000000
v 14.168531 82.555573 50.000000
v 14.196792 82.595695 50.000000
v 14.226991 82.634392 50.000000
v 14.259048 82.671562 50.000000
v 14.292892 82.707108 50.000000
v 14.328440 82.740952 50.000000
v 14.365606 82.773010 50.000000
v 14.404301 82.803207 50.000000
v 14.444428 82.831467 50.000000
v 14.485898 82.857727 50.000000
v 14.528604 82.881920 50.000000
v 14.572445 82.903992 50.000000
v 14.617317 82.923882 50.000000
v 14.663111 82.941544 50.000000
v 14.709715 82.956940 50.000000
v 14.757019 82.970032 50.000000
v 14.804911 82.980782 50.000000
v 14.853269 82.989174 50.000000
v 14.901984 82.995186 50.000000
v 14.950933 82.998795 50.000000
v 15.000000 83.000000 50.000000
v 36.000000 76.000000 50.000000
v 35.985546 76.588814 50.000000
v 35.942215 77.176208 50.000000
v 35.870117 77.760765 50.000000
v 35.769424 78.341087 50.000000
v 35.640373 78.915764 50.000000
v 35.483284 79.483414 50.000000
v 35.298531 80.042679 50.000000
v 34.847870 81.130661 50.000000
v 35.086555 80.592201 50.000000
v 34.583054 81.656761 50.000000
v 24.000000 82.000000 50.000000
v 23.998795 82.049065 50.000000
v 23.995184 82.098015 50.000000
v 23.989176 82.146729 50.000000
v 23.980785 82.195091 50.000000
v 23.970032 82.242981 50.000000
v 23.956940 82.290283 50.000000
v 23.941544 82.336891 50.000000
v 23.903990 82.427559 50.000000
v 23.881922 82.471397 50.000000
v 23.857729 82.514099 50.000000
v 23.831470 82.555573 50.000000
v 23.923880 82.382683 50.000000
v 23.803207 82.595695 50.000000
v 23.773010 82.634392 50.000000
v 23.740952 82.671562 50.000000
v 23.671558 82.740952 50.000000
v 23.707108 82.707108 50.000000
v 23.000000 83.000000 50.000000
v 23.049068 82.998795 50.000000
v 23.595699 82.803207 50.000000
v 23.555571 82.831467 50.000000
v 23.471397 82.881920 50.000000
v 23.382683 82.923882 50.000000
v 23.427555 82.903992 50.000000
v 23.514103 82.857727 50.000000
v 23.195091 82.980782 50.000000
v 23.098017 82.995186 50.000000
v 23.146730 82.989174 50.000000
v 23.242981 82.970032 50.000000
v 23.290285 82.956940 50.000000
v 23.336889 82.941544 50.000000
v 23.634394 82.773010 50.000000
v 24.000000 88.000000 50.000000
v 24.588812 87.985542 50.000000
v 25.176207 87.942215 50.000000
v 25.760765 87.870117 50.000000
v 26.341084 87.769424 50.000000
v 26.915764 87.640373 50.000000
v 33.638489 83.148392 50.000000
v 34.292744 82.169235 50.000000
v 33.977634 82.666840 50.000000
v 33.276127 83.612717 50.000000
v 32.891415 84.058708 50.000000
v 32.485283 84.485283 50.000000
v 32.058708 84.891411 50.000000
v 31.148390 85.638489 50.000000
v 30.169231 86.292740 50.000000
v 30.666845 85.977638 50.000000
v 29.130663 86.847870 50.000000
v 28.592201 87.086555 50.000000
v 27.483414 87.483284 50.000000
v 28.042679 87.298531 50.000000
v 29.656761 86.583054 50.000000
v 31.612720 85.276123 50.000000
f 12 13 29
f 10 11 27
f 1 10 28
f 11 12 26
f 13 16 29
f 14 23 16
f 14 15 24
f 15 40 24
f 1 28 47
f 1 47 48
f 12 29 26
f 11 25 27
f 10 27 28
f 11 26 25
f 16 23 29
f 14 24 23
f 1 73 10
f 2 6 65
f 3 4 66
f 4 17 67
f 5 69 6
f 3 68 5
f 7 72 9
f 7 8 70
f 2 71 8
f 1 9 64
f 10 74 11
f 11 75 12
f 12 76 13
f 14 16 77
f 14 78 15
f 13 79 16
f 17 18 80
f 18 19 81
f 19 20 82
f 20 21 83
f 21 22 84
f 31 33 42
f 33 34 43
f 34 35 43
f 15 30 40
f 30 32 41
f 31 41 32
f 30 41 40
f 31 42 41
f 33 43 42
f 35 36 44
f 36 37 45
f 37 38 45
f 38 39 46
f 39 127 138
f 35 44 43
f 36 45 44
f 39 138 46
f 38 46 45
f 15 93 30
f 30 95 32
f 31 32 94
f 31 96 33
f 33 97 34
f 34 98 35
f 35 99 36
f 36 100 37
f 37 101 38
f 38 102 39
f 39 193 127
f 5 6 335
f 2 336 6
f 2 8 337
f 7 338 8
f 7 9 339
f 1 340 9
f 19 297 20
f 18 330 19
f 4 332 17
f 17 331 18
f 21 295 22
f 20 296 21
f 3 333 4
f 3 5 334
f 1 48 341
f 341 48 49
f 55 270 54
f 56 278 55
f 57 288 56
f 22 292 85
f 291 57 58
f 59 291 58
f 60 291 59
f 291 60 61
f 62 291 61
f 291 62 63
f 178 291 63
f 291 178 179
f 180 291 179
f 181 291 180
f 1 64 73
f 6 69 65
f 4 67 66
f 17 80 67
f 5 68 69
f 3 66 68
f 7 70 72
f 2 65 71
f 8 71 70
f 9 72 64
f 10 73 74
f 11 74 75
f 12 75 76
f 16 79 77
f 14 77 78
f 13 76 79
f 18 81 80
f 19 82 81
f 20 83 82
f 21 84 83
f 22 85 84
f 75 86 76
f 73 88 74
f 64 90 73
f 74 92 75
f 76 86 79
f 77 103 78
f 77 79 87
f 77 87 103
f 64 110 91
f 64 111 110
f 74 89 92
f 73 90 88
f 64 91 90
f 74 88 89
f 79 86 87
f 75 92 86
f 15 78 93
f 30 93 95
f 32 95 94
f 31 94 96
f 33 96 97
f 34 97 98
f 35 98 99
f 36 99 100
f 37 100 101
f 38 101 102
f 39 102 193
f 94 95 105
f 94 106 96
f 96 107 97
f 97 107 98
f 78 104 93
f 93 105 95
f 78 103 104
f 93 104 105
f 94 105 106
f 96 106 107
f 98 108 99
f 99 109 100
f 100 109 101
f 101 204 102
f 102 204 193
f 98 107 108
f 99 108 109
f 101 109 204
f 68 433 69
f 65 69 434
f 65 435 71
f 70 71 436
f 70 437 72
f 64 72 438
f 82 83 395
f 81 82 428
f 67 80 430
f 80 81 429
f 84 85 393
f 83 84 394
f 66 67 431
f 66 432 68
f 64 439 111
f 439 112 111
f 116 371 117
f 117 375 118
f 118 387 119
f 119 554 120
f 120 554 121
f 121 554 122
f 122 554 123
f 123 554 124
f 127 128 138
f 128 129 138
f 129 130 139
f 130 131 140
f 131 132 140
f 129 139 138
f 130 140 139
f 132 141 140
f 132 133 141
f 133 134 142
f 134 135 143
f 135 136 143
f 133 142 141
f 134 143 142
f 136 137 144
f 137 146 145
f 136 144 143
f 137 145 144
f 127 194 128
f 128 195 129
f 129 196 130
f 130 197 131
f 131 198 132
f 132 199 133
f 133 200 134
f 134 201 135
f 135 202 136
f 136 203 137
f 137 212 146
f 146 147 162
f 147 148 162
f 148 149 163
f 146 162 145
f 149 150 164
f 150 151 165
f 151 152 167
f 148 163 162
f 149 164 163
f 150 165 164
f 151 166 165
f 151 167 166
f 152 168 167
f 152 183 168
f 152 192 183
f 172 173 174
f 146 213 147
f 147 214 148
f 148 215 149
f 149 216 150
f 150 217 151
f 151 218 152
f 152 219 153
f 153 220 154
f 154 221 155
f 155 222 156
f 156 223 157
f 157 224 158
f 158 225 159
f 159 226 160
f 160 227 161
f 161 235 169
f 169 236 170
f 170 237 171
f 171 238 172
f 172 239 173
f 173 240 174
f 175 291 182
f 182 291 181
f 176 291 175
f 177 291 176
f 152 153 547
f 153 154 546
f 154 155 552
f 155 156 548
f 156 157 549
f 157 158 551
f 158 159 550
f 159 160 537
f 160 161 536
f 161 169 535
f 169 170 534
f 170 171 533
f 188 476 190
f 190 462 177
f 152 545 192
f 171 172 532
f 172 174 532
f 545 184 192
f 545 185 184
f 127 193 194
f 128 194 195
f 129 195 196
f 130 196 197
f 131 197 198
f 132 198 199
f 133 199 200
f 134 200 201
f 135 201 202
f 136 202 203
f 137 203 212
f 193 205 194
f 194 205 195
f 195 206 196
f 196 207 197
f 197 207 198
f 193 204 205
f 195 205 206
f 196 206 207
f 198 207 208
f 198 208 199
f 199 209 200
f 200 210 201
f 199 208 209
f 200 209 210
f 201 210 202
f 202 211 203
f 202 210 211
f 203 211 228
f 146 212 213
f 147 213 214
f 148 214 215
f 149 215 216
f 150 216 217
f 151 217 218
f 152 218 219
f 153 219 220
f 154 220 221
f 155 221 222
f 156 222 223
f 157 223 224
f 158 224 225
f 159 225 226
f 160 226 227
f 161 227 235
f 169 235 236
f 170 236 237
f 171 237 238
f 172 238 239
f 173 239 240
f 203 228 212
f 212 229 213
f 213 229 214
f 214 230 215
f 215 231 216
f 216 232 217
f 217 234 218
f 212 228 229
f 214 229 230
f 215 230 231
f 216 231 232
f 217 232 233
f 217 233 234
f 218 234 249
f 218 249 258
f 238 240 239
f 124 554 125
f 125 554 126
f 126 554 244
f 244 554 245
f 554 246 245
f 246 554 247
f 554 248 247
f 248 554 241
f 554 242 241
f 242 560 243
f 174 240 631
f 218 646 219
f 219 645 220
f 220 651 221
f 221 647 222
f 222 648 223
f 223 650 224
f 224 649 225
f 225 636 226
f 226 635 227
f 227 634 235
f 235 633 236
f 236 632 237
f 243 574 256
f 218 258 644
f 237 631 238
f 238 631 240
f 644 258 250
f 644 250 251
f 22 294 292
f 22 295 294
f 341 49 50
f 341 50 51
f 341 51 52
f 342 52 53
f 343 53 54
f 54 270 272
f 54 272 273
f 55 266 268
f 55 259 266
f 55 267 271
f 55 268 267
f 55 269 270
f 55 271 269
f 55 265 263
f 55 264 262
f 55 263 264
f 55 276 275
f 55 278 276
f 55 274 265
f 55 275 274
f 55 260 259
f 55 261 260
f 55 262 261
f 56 281 279
f 56 280 281
f 56 282 280
f 56 283 282
f 56 277 278
f 56 279 277
f 56 284 283
f 56 285 284
f 56 286 285
f 56 287 286
f 56 288 287
f 54 273 298
f 21 296 295
f 20 297 296
f 19 330 297
f 18 331 330
f 17 332 331
f 4 333 332
f 3 334 333
f 5 335 334
f 6 336 335
f 2 337 336
f 8 338 337
f 7 339 338
f 9 340 339
f 1 341 340
f 341 52 342
f 343 54 298
f 57 289 288
f 57 290 289
f 57 291 290
f 292 294 293
f 342 53 343
f 343 298 299
f 343 299 300
f 343 300 301
f 343 301 302
f 343 302 303
f 343 303 304
f 343 304 305
f 343 305 306
f 343 306 307
f 343 307 308
f 344 308 309
f 344 309 310
f 344 310 311
f 344 311 312
f 344 312 313
f 344 313 314
f 344 314 315
f 344 315 316
f 344 316 317
f 344 317 318
f 344 318 319
f 344 319 320
f 344 320 321
f 344 321 322
f 345 322 323
f 345 323 324
f 345 324 325
f 345 325 326
f 345 326 327
f 345 327 328
f 345 328 329
f 345 329 346
f 343 308 344
f 344 322 345
f 292 293 390
f 293 294 391
f 294 295 392
f 295 296 393
f 296 297 394
f 297 330 395
f 330 331 428
f 331 332 429
f 332 333 430
f 333 334 431
f 334 335 432
f 335 336 433
f 336 337 434
f 337 338 435
f 338 339 436
f 339 340 437
f 340 341 438
f 341 342 439
f 342 343 440
f 343 344 441
f 344 345 442
f 345 346 499
f 345 499 347
f 347 499 348
f 348 499 349
f 349 499 350
f 350 499 351
f 351 499 352
f 345 347 443
f 347 348 445
f 348 349 446
f 349 350 447
f 350 351 448
f 351 352 449
f 352 353 450
f 353 354 451
f 354 355 452
f 355 356 453
f 356 488 454
f 85 292 390
f 85 390 392
f 85 392 393
f 439 113 112
f 439 114 113
f 440 115 114
f 441 116 115
f 117 362 361
f 117 361 363
f 117 363 372
f 117 372 373
f 117 373 374
f 117 376 375
f 117 374 376
f 117 365 366
f 117 366 364
f 117 367 369
f 117 369 365
f 117 370 368
f 117 368 367
f 117 371 370
f 117 364 357
f 117 357 358
f 117 358 359
f 117 359 360
f 117 360 362
f 118 381 382
f 118 382 383
f 118 383 384
f 118 384 385
f 118 385 386
f 118 386 387
f 118 375 377
f 118 377 379
f 118 379 378
f 118 378 380
f 118 380 381
f 119 387 388
f 119 388 389
f 84 393 394
f 83 394 395
f 82 395 428
f 81 428 429
f 80 429 430
f 67 430 431
f 66 431 432
f 68 432 433
f 69 433 434
f 65 434 435
f 71 435 436
f 70 436 437
f 72 437 438
f 64 438 439
f 441 371 116
f 439 440 114
f 440 441 115
f 119 389 554
f 293 391 390
f 294 392 391
f 295 393 392
f 296 394 393
f 297 395 394
f 330 428 395
f 331 429 428
f 332 430 429
f 333 431 430
f 334 432 431
f 335 433 432
f 336 434 433
f 337 435 434
f 338 436 435
f 339 437 436
f 340 438 437
f 341 439 438
f 342 440 439
f 343 441 440
f 344 442 441
f 345 443 442
f 390 391 392
f 441 396 371
f 441 397 396
f 441 398 397
f 441 399 398
f 441 400 399
f 441 401 400
f 441 402 401
f 441 403 402
f 441 404 403
f 441 405 404
f 442 406 405
f 442 407 406
f 442 408 407
f 442 409 408
f 442 410 409
f 442 411 410
f 442 412 411
f 442 413 412
f 442 414 413
f 442 415 414
f 442 416 415
f 442 417 416
f 442 418 417
f 442 419 418
f 443 420 419
f 443 421 420
f 443 422 421
f 443 423 422
f 443 424 423
f 443 425 424
f 443 426 425
f 443 427 426
f 443 444 427
f 441 442 405
f 442 443 419
f 347 445 443
f 348 446 445
f 349 447 446
f 350 448 447
f 351 449 448
f 352 450 449
f 353 451 450
f 354 452 451
f 355 453 452
f 356 454 453
f 454 488 587
f 443 445 444
f 445 446 444
f 446 447 444
f 447 448 444
f 448 449 444
f 449 450 444
f 450 451 444
f 451 452 444
f 452 453 444
f 453 454 444
f 454 587 444
f 587 588 444
f 588 589 444
f 589 590 444
f 590 591 444
f 591 592 444
f 177 455 291
f 177 456 455
f 177 457 456
f 177 458 457
f 541 188 189
f 553 186 185
f 544 191 187
f 553 187 186
f 543 189 191
f 177 459 458
f 177 460 459
f 177 461 460
f 177 462 461
f 190 463 462
f 190 464 463
f 190 465 464
f 190 466 465
f 190 467 466
f 190 468 467
f 190 469 468
f 190 470 469
f 190 471 470
f 471 190 472
f 190 473 472
f 190 474 473
f 190 475 474
f 190 476 475
f 476 188 477
f 188 478 477
f 188 479 478
f 188 480 479
f 188 481 480
f 188 482 481
f 188 483 482
f 188 484 483
f 188 485 484
f 188 486 485
f 157 551 549
f 158 550 551
f 170 533 534
f 171 532 533
f 160 536 537
f 159 537 550
f 161 535 536
f 169 534 535
f 541 486 188
f 542 189 543
f 544 187 553
f 543 191 544
f 152 547 545
f 153 546 547
f 154 552 546
f 155 548 552
f 156 549 548
f 545 553 185
f 174 631 532
f 352 499 353
f 353 499 354
f 354 499 355
f 355 499 356
f 356 499 488
f 488 499 489
f 489 499 490
f 490 499 491
f 495 499 497
f 496 497 499
f 496 499 498
f 498 499 539
f 491 499 492
f 492 499 493
f 493 499 494
f 494 499 495
f 488 489 587
f 489 490 588
f 490 491 589
f 491 492 590
f 492 493 591
f 493 494 592
f 494 495 593
f 495 497 594
f 496 596 497
f 496 498 595
f 498 539 597
f 541 487 486
f 541 189 542
f 541 517 487
f 538 515 531
f 538 531 519
f 538 519 520
f 538 526 518
f 538 527 526
f 538 525 527
f 538 528 525
f 538 521 523
f 538 522 530
f 538 529 528
f 538 530 529
f 538 523 522
f 538 520 524
f 538 524 521
f 541 518 517
f 539 499 500
f 540 500 501
f 540 501 502
f 540 502 503
f 540 503 504
f 540 506 511
f 540 511 507
f 540 507 508
f 540 508 509
f 540 504 505
f 540 505 506
f 540 509 510
f 538 510 512
f 538 512 513
f 538 513 514
f 538 514 516
f 538 516 515
f 539 500 540
f 538 518 541
f 538 540 510
f 532 632 533
f 533 633 534
f 534 634 535
f 535 635 536
f 536 636 537
f 538 541 637
f 539 540 638
f 538 639 540
f 541 542 640
f 542 543 641
f 543 544 642
f 545 652 553
f 546 552 645
f 546 646 547
f 545 547 644
f 549 551 648
f 548 549 647
f 537 649 550
f 550 650 551
f 548 651 552
f 544 553 643
f 242 554 555
f 242 555 556
f 242 556 557
f 242 557 558
f 559 242 558
f 242 559 560
f 640 254 256
f 652 253 257
f 652 252 253
f 642 255 254
f 643 257 255
f 243 560 561
f 243 561 562
f 243 562 563
f 243 563 564
f 243 564 565
f 243 565 566
f 243 566 567
f 243 567 568
f 243 568 569
f 243 569 570
f 256 574 575
f 576 256 575
f 256 576 577
f 256 577 578
f 243 570 571
f 243 571 572
f 243 572 573
f 243 573 574
f 256 578 579
f 256 579 580
f 256 580 581
f 256 581 582
f 256 582 583
f 256 583 584
f 256 584 585
f 644 251 252
f 223 648 650
f 224 650 649
f 236 633 632
f 237 632 631
f 226 636 635
f 225 649 636
f 227 635 634
f 235 634 633
f 640 256 585
f 642 643 255
f 643 652 257
f 218 644 646
f 219 646 645
f 220 645 651
f 221 651 647
f 222 647 648
f 644 252 652
f 489 588 587
f 490 589 588
f 491 590 589
f 492 591 590
f 493 592 591
f 494 593 592
f 495 594 593
f 497 596 594
f 496 595 596
f 498 597 595
f 539 638 597
f 594 596 444
f 595 444 596
f 638 598 444
f 595 597 444
f 597 638 444
f 592 593 444
f 593 594 444
f 532 631 632
f 533 632 633
f 534 633 634
f 535 634 635
f 536 635 636
f 541 640 637
f 540 639 638
f 538 637 639
f 542 641 640
f 543 642 641
f 544 643 642
f 545 644 652
f 546 645 646
f 552 651 645
f 547 646 644
f 551 650 648
f 549 648 647
f 537 636 649
f 550 649 650
f 548 647 651
f 553 652 643
f 640 585 586
f 640 641 254
f 641 642 254
f 640 586 616
f 637 630 614
f 637 618 630
f 637 619 618
f 637 625 626
f 637 626 624
f 637 624 627
f 637 622 620
f 637 629 621
f 637 627 628
f 637 628 629
f 637 621 622
f 637 623 619
f 637 620 623
f 640 617 625
f 640 616 617
f 639 599 598
f 639 600 599
f 639 601 600
f 639 602 601
f 639 603 602
f 639 610 605
f 639 606 610
f 639 607 606
f 639 608 607
f 639 604 603
f 639 605 604
f 637 609 608
f 637 611 609
f 637 612 611
f 637 613 612
f 637 615 613
f 637 614 615
f 638 639 598
f 637 640 625
f 637 608 639
f 23 24 87
f 26 29 92
f 25 26 89
f 28 27 90
f 27 25 88
f 47 28 91
f 29 23 86
f 24 40 103
f 40 41 104
f 41 42 105
f 42 43 106
f 43 44 107
f 44 45 108
f 45 46 109
f 46 138 204
f 48 47 110
f 49 48 111
f 50 49 112
f 51 50 113
f 52 51 114
f 53 52 115
f 54 53 116
f 55 54 117
f 56 55 118
f 57 56 119
f 58 57 120
f 59 58 121
f 60 59 122
f 61 60 123
f 62 61 124
f 63 62 125
f 178 63 126
f 87 86 23
f 103 87 24
f 92 89 26
f 89 88 25
f 27 88 90
f 90 91 28
f 47 91 110
f 86 92 29
f 104 103 40
f 105 104 41
f 106 105 42
f 107 106 43
f 108 107 44
f 109 108 45
f 204 109 46
f 48 110 111
f 49 111 112
f 50 112 113
f 113 114 51
f 52 114 115
f 115 116 53
f 116 117 54
f 117 118 55
f 118 119 56
f 119 120 57
f 120 121 58
f 121 122 59
f 122 123 60
f 123 124 61
f 124 125 62
f 125 126 63
f 126 244 178
f 138 139 205
f 139 140 206
f 140 141 207
f 141 142 208
f 142 143 209
f 143 144 210
f 144 145 211
f 145 162 228
f 162 163 229
f 163 164 230
f 164 165 231
f 165 166 232
f 166 167 233
f 167 168 234
f 168 183 249
f 176 175 241
f 177 176 242
f 190 177 243
f 179 178 244
f 180 179 245
f 181 180 246
f 182 181 247
f 175 182 248
f 183 192 258
f 192 184 250
f 184 185 251
f 185 186 252
f 186 187 253
f 189 188 254
f 188 190 256
f 187 191 257
f 191 189 255
f 205 204 138
f 206 205 139
f 207 206 140
f 208 207 141
f 209 208 142
f 210 209 143
f 211 210 144
f 228 211 145
f 229 228 162
f 230 229 163
f 231 230 164
f 165 232 231
f 166 233 232
f 234 233 167
f 168 249 234
f 241 242 176
f 242 243 177
f 244 245 179
f 245 246 180
f 246 247 181
f 247 248 182
f 248 241 175
f 183 258 249
f 192 250 258
f 184 251 250
f 252 251 185
f 253 252 186
f 254 255 189
f 243 256 190
f 256 254 188
f 255 257 191
f 257 253 187
f 265 274 372
f 259 260 358
f 260 261 359
f 261 262 360
f 262 264 362
f 264 263 361
f 263 265 363
f 268 266 364
f 267 268 366
f 270 269 367
f 271 267 365
f 269 271 369
f 272 270 368
f 273 272 370
f 266 259 357
f 274 275 373
f 275 276 374
f 277 279 377
f 276 278 376
f 278 277 375
f 279 281 379
f 281 280 378
f 280 282 380
f 282 283 381
f 284 285 383
f 285 286 384
f 286 287 385
f 287 288 386
f 288 289 387
f 289 290 388
f 290 291 389
f 283 284 382
f 298 273 371
f 299 298 396
f 300 299 397
f 301 300 398
f 302 301 399
f 303 302 400
f 304 303 401
f 305 304 402
f 306 305 403
f 307 306 404
f 308 307 405
f 309 308 406
f 310 309 407
f 311 310 408
f 312 311 409
f 313 312 410
f 314 313 411
f 315 314 412
f 316 315 413
f 317 316 414
f 318 317 415
f 319 318 416
f 320 319 417
f 321 320 418
f 322 321 419
f 323 322 420
f 324 323 421
f 325 324 422
f 326 325 423
f 327 326 424
f 328 327 425
f 329 328 426
f 346 329 427
f 499 346 444
f 262 362 360
f 259 358 357
f 260 359 358
f 261 360 359
f 264 361 362
f 263 363 361
f 265 372 363
f 268 364 366
f 267 366 365
f 269 369 367
f 270 367 368
f 271 365 369
f 272 368 370
f 273 370 371
f 357 364 266
f 274 373 372
f 276 376 374
f 275 374 373
f 277 377 375
f 278 375 376
f 279 379 377
f 281 378 379
f 380 378 280
f 282 381 380
f 284 383 382
f 285 384 383
f 286 385 384
f 287 386 385
f 288 387 386
f 289 388 387
f 290 389 388
f 283 382 381
f 554 389 291
f 371 396 298
f 299 396 397
f 300 397 398
f 301 398 399
f 302 399 400
f 303 400 401
f 304 401 402
f 305 402 403
f 306 403 404
f 307 404 405
f 405 406 308
f 309 406 407
f 310 407 408
f 408 409 311
f 312 409 410
f 313 410 411
f 314 411 412
f 315 412 413
f 316 413 414
f 317 414 415
f 318 415 416
f 319 416 417
f 320 417 418
f 321 418 419
f 419 420 322
f 323 420 421
f 421 422 324
f 325 422 423
f 326 423 424
f 327 424 425
f 328 425 426
f 329 426 427
f 346 427 444
f 291 455 554
f 455 456 555
f 456 457 556
f 457 458 557
f 458 459 558
f 459 460 559
f 460 461 560
f 461 462 561
f 462 463 562
f 463 464 563
f 464 465 564
f 465 466 565
f 466 467 566
f 467 468 567
f 468 469 568
f 469 470 569
f 470 471 570
f 471 472 571
f 472 473 572
f 473 474 573
f 474 475 574
f 475 476 575
f 476 477 576
f 477 478 577
f 478 479 578
f 479 480 579
f 480 481 580
f 481 482 581
f 482 483 582
f 483 484 583
f 484 485 584
f 485 486 585
f 486 487 586
f 487 517 616
f 500 499 598
f 501 500 599
f 502 501 600
f 503 502 601
f 504 503 602
f 505 504 603
f 506 505 604
f 511 506 605
f 508 507 606
f 509 508 607
f 510 509 608
f 507 511 610
f 514 513 612
f 512 510 609
f 513 512 611
f 516 514 613
f 515 516 615
f 517 518 617
f 519 531 630
f 524 520 619
f 520 519 618
f 523 521 620
f 522 523 622
f 530 522 621
f 521 524 623
f 527 525 624
f 518 526 625
f 526 527 626
f 525 528 627
f 529 530 629
f 528 529 628
f 531 515 614
f 455 555 554
f 456 556 555
f 457 557 556
f 458 558 557
f 559 558 459
f 460 560 559
f 461 561 560
f 462 562 561
f 463 563 562
f 464 564 563
f 465 565 564
f 466 566 565
f 467 567 566
f 468 568 567
f 469 569 568
f 470 570 569
f 571 570 471
f 472 572 571
f 473 573 572
f 474 574 573
f 475 575 574
f 576 575 476
f 477 577 576
f 478 578 577
f 479 579 578
f 480 580 579
f 481 581 580
f 482 582 581
f 483 583 582
f 484 584 583
f 485 585 584
f 486 586 585
f 487 616 586
f 444 598 499
f 500 598 599
f 501 599 600
f 502 600 601
f 503 601 602
f 504 602 603
f 505 603 604
f 506 604 605
f 511 605 610
f 508 606 607
f 509 607 608
f 510 608 609
f 507 610 606
f 512 609 611
f 513 611 612
f 514 612 613
f 516 613 615
f 515 615 614
f 517 617 616
f 519 630 618
f 520 618 619
f 522 622 621
f 530 621 629
f 523 620 622
f 524 619 623
f 521 623 620
f 526 626 625
f 518 625 617
f 527 624 626
f 525 627 624
f 528 628 627
f 529 629 628
f 531 614 630
