# DataCat thin soft-front enclosure Rev H; coordinates in millimetres
mtllib rounded_enclosure.mtl
o LCD_allowance_64x96x14
usemtl LCD_allowance_64x96x14
v -32.000000 -58.000000 33.000000
v -32.000000 -58.000000 47.000000
v -32.000000 38.000000 33.000000
v -32.000000 38.000000 47.000000
v 32.000000 -58.000000 33.000000
v 32.000000 -58.000000 47.000000
v 32.000000 38.000000 33.000000
v 32.000000 38.000000 47.000000
f 2 1 5
f 3 5 1
f 2 4 1
f 4 2 6
f 4 3 1
f 4 8 3
f 6 5 7
f 6 2 5
f 7 5 3
f 8 7 3
f 8 4 6
f 8 6 7
o Pi4_allowance_60x90x24
usemtl Pi4_allowance_60x90x24
v -30.000000 -35.000000 7.000000
v -30.000000 -35.000000 31.000000
v -30.000000 55.000000 7.000000
v -30.000000 55.000000 31.000000
v 30.000000 -35.000000 7.000000
v 30.000000 -35.000000 31.000000
v 30.000000 55.000000 7.000000
v 30.000000 55.000000 31.000000
f 10 9 13
f 11 13 9
f 10 12 9
f 12 10 14
f 12 11 9
f 12 16 11
f 14 13 15
f 14 10 13
f 15 13 11
f 16 15 11
f 16 12 14
f 16 14 15
o camera_allowance_30x30x22
usemtl camera_allowance_30x30x22
v -32.000000 61.000000 25.000000
v -32.000000 61.000000 47.000000
v -32.000000 91.000000 25.000000
v -32.000000 91.000000 47.000000
v -2.000000 61.000000 25.000000
v -2.000000 61.000000 47.000000
v -2.000000 91.000000 25.000000
v -2.000000 91.000000 47.000000
f 18 17 21
f 19 21 17
f 18 20 17
f 20 18 22
f 20 19 17
f 20 24 19
f 22 21 23
f 22 18 21
f 23 21 19
f 24 23 19
f 24 20 22
f 24 22 23
o ToF_allowance_16x29x14
usemtl ToF_allowance_16x29x14
v 11.000000 61.500000 33.000000
v 11.000000 61.500000 47.000000
v 11.000000 90.500000 33.000000
v 11.000000 90.500000 47.000000
v 27.000000 61.500000 33.000000
v 27.000000 61.500000 47.000000
v 27.000000 90.500000 33.000000
v 27.000000 90.500000 47.000000
f 26 25 29
f 27 29 25
f 26 28 25
f 28 26 30
f 28 27 25
f 28 32 27
f 30 29 31
f 30 26 29
f 31 29 27
f 32 31 27
f 32 28 30
f 32 30 31
o button_allowance_d24x42
usemtl button_allowance_d24x42
v -31.276125 -79.612717 5.000000
v -31.977634 -78.666840 5.000000
v -29.612720 -81.276123 5.000000
v -28.666845 -81.977638 5.000000
v -30.485279 -80.485283 5.000000
v -32.583054 -77.656761 5.000000
v -33.086555 -76.592201 5.000000
v -33.483284 -75.483414 5.000000
v -33.769424 -74.341087 5.000000
v -33.942215 -73.176208 5.000000
v -27.656761 -82.583054 5.000000
v -26.592201 -83.086555 5.000000
v -25.483416 -83.483284 5.000000
v -24.341084 -83.769424 5.000000
v -23.176207 -83.942215 5.000000
v -31.276125 -79.612717 47.000000
v -31.977634 -78.666840 47.000000
v -29.612720 -81.276123 47.000000
v -28.666845 -81.977638 47.000000
v -30.485279 -80.485283 47.000000
v -32.583054 -77.656761 47.000000
v -33.086555 -76.592201 47.000000
v -33.483284 -75.483414 47.000000
v -33.769424 -74.341087 47.000000
v -33.942215 -73.176208 47.000000
v -27.656761 -82.583054 47.000000
v -26.592201 -83.086555 47.000000
v -25.483416 -83.483284 47.000000
v -24.341084 -83.769424 47.000000
v -23.176207 -83.942215 47.000000
v -34.000000 -72.000000 5.000000
v -33.942215 -70.823792 5.000000
v -33.769424 -69.658913 5.000000
v -33.483284 -68.516586 5.000000
v -33.086555 -67.407799 5.000000
v -32.583054 -66.343239 5.000000
v -31.977634 -65.333160 5.000000
v -31.276125 -64.387283 5.000000
v -30.485279 -63.514721 5.000000
v -29.612720 -62.723873 5.000000
v -28.666845 -62.022369 5.000000
v -27.656761 -61.416946 5.000000
v -26.592201 -60.913445 5.000000
v -25.483416 -60.516716 5.000000
v -24.341084 -60.230572 5.000000
v -23.176207 -60.057785 5.000000
v -34.000000 -72.000000 47.000000
v -33.942215 -70.823792 47.000000
v -33.769424 -69.658913 47.000000
v -33.483284 -68.516586 47.000000
v -33.086555 -67.407799 47.000000
v -32.583054 -66.343239 47.000000
v -31.977634 -65.333160 47.000000
v -31.276125 -64.387283 47.000000
v -30.485279 -63.514721 47.000000
v -29.612720 -62.723873 47.000000
v -28.666845 -62.022369 47.000000
v -27.656761 -61.416946 47.000000
v -26.592201 -60.913445 47.000000
v -25.483416 -60.516716 47.000000
v -24.341084 -60.230572 47.000000
v -23.176207 -60.057785 47.000000
v -22.000000 -84.000000 5.000000
v -20.823793 -83.942215 5.000000
v -19.658916 -83.769424 5.000000
v -18.516584 -83.483284 5.000000
v -17.407799 -83.086555 5.000000
v -16.343239 -82.583054 5.000000
v -15.333157 -81.977638 5.000000
v -14.387280 -81.276123 5.000000
v -13.514718 -80.485283 5.000000
v -12.723874 -79.612717 5.000000
v -12.022365 -78.666840 5.000000
v -11.416945 -77.656761 5.000000
v -10.913445 -76.592201 5.000000
v -10.516716 -75.483414 5.000000
v -10.230577 -74.341087 5.000000
v -10.057783 -73.176208 5.000000
v -22.000000 -84.000000 47.000000
v -20.823793 -83.942215 47.000000
v -19.658916 -83.769424 47.000000
v -18.516584 -83.483284 47.000000
v -17.407799 -83.086555 47.000000
v -16.343239 -82.583054 47.000000
v -15.333157 -81.977638 47.000000
v -14.387280 -81.276123 47.000000
v -13.514718 -80.485283 47.000000
v -12.723874 -79.612717 47.000000
v -12.022365 -78.666840 47.000000
v -11.416945 -77.656761 47.000000
v -10.913445 -76.592201 47.000000
v -10.516716 -75.483414 47.000000
v -10.230577 -74.341087 47.000000
v -10.057783 -73.176208 47.000000
v -22.000000 -60.000000 5.000000
v -20.823793 -60.057785 5.000000
v -19.658916 -60.230572 5.000000
v -18.516584 -60.516716 5.000000
v -17.407799 -60.913445 5.000000
v -16.343239 -61.416946 5.000000
v -10.000000 -72.000000 5.000000
v -10.057783 -70.823792 5.000000
v -10.230577 -69.658913 5.000000
v -10.516716 -68.516586 5.000000
v -10.913445 -67.407799 5.000000
v -11.416945 -66.343239 5.000000
v -13.514718 -63.514721 5.000000
v -15.333157 -62.022369 5.000000
v -14.387280 -62.723873 5.000000
v -12.022365 -65.333160 5.000000
v -12.723874 -64.387283 5.000000
v -22.000000 -60.000000 47.000000
v -20.823793 -60.057785 47.000000
v -19.658916 -60.230572 47.000000
v -18.516584 -60.516716 47.000000
v -17.407799 -60.913445 47.000000
v -16.343239 -61.416946 47.000000
v -10.000000 -72.000000 47.000000
v -10.057783 -70.823792 47.000000
v -10.230577 -69.658913 47.000000
v -10.516716 -68.516586 47.000000
v -10.913445 -67.407799 47.000000
v -11.416945 -66.343239 47.000000
v -13.514718 -63.514721 47.000000
v -15.333157 -62.022369 47.000000
v -14.387280 -62.723873 47.000000
v -12.022365 -65.333160 47.000000
v -12.723874 -64.387283 47.000000
f 48 33 37
f 49 34 33
f 50 35 36
f 51 36 43
f 52 37 35
f 68 38 39
f 66 40 41
f 65 41 42
f 67 39 40
f 69 34 38
f 70 33 34
f 73 36 35
f 71 37 33
f 72 35 37
f 54 39 38
f 55 40 39
f 53 38 34
f 56 41 40
f 57 42 41
f 79 63 42
f 58 43 44
f 59 44 45
f 60 45 46
f 61 46 47
f 62 47 95
f 74 43 36
f 75 44 43
f 76 45 44
f 77 46 45
f 78 47 46
f 127 95 47
f 49 53 34
f 48 49 33
f 50 52 35
f 51 50 36
f 52 48 37
f 53 54 38
f 55 56 40
f 54 55 39
f 56 57 41
f 57 79 42
f 84 54 53
f 82 56 55
f 81 57 56
f 83 55 54
f 85 53 49
f 86 49 48
f 89 50 51
f 87 48 52
f 88 52 50
f 59 58 44
f 58 51 43
f 60 59 45
f 61 60 46
f 62 61 47
f 111 62 95
f 90 51 58
f 91 58 59
f 92 59 60
f 93 60 61
f 94 61 62
f 144 62 111
f 64 42 63
f 65 42 64
f 66 41 65
f 67 40 66
f 68 39 67
f 69 38 68
f 70 34 69
f 71 33 70
f 72 37 71
f 73 35 72
f 74 36 73
f 80 64 63
f 81 65 64
f 82 66 65
f 83 67 66
f 84 68 67
f 85 69 68
f 86 70 69
f 87 71 70
f 88 72 71
f 89 73 72
f 75 43 74
f 76 44 75
f 77 45 76
f 78 46 77
f 127 47 78
f 90 74 73
f 91 75 74
f 92 76 75
f 93 77 76
f 94 78 77
f 144 127 78
f 79 80 63
f 80 81 64
f 81 82 65
f 82 83 66
f 83 84 67
f 84 85 68
f 80 79 57
f 81 80 57
f 82 81 56
f 83 82 55
f 84 83 54
f 85 84 53
f 86 85 49
f 87 86 48
f 88 87 52
f 89 88 50
f 90 89 51
f 85 86 69
f 86 87 70
f 87 88 71
f 88 89 72
f 89 90 73
f 91 90 58
f 92 91 59
f 93 92 60
f 94 93 61
f 144 94 62
f 90 91 74
f 91 92 75
f 92 93 76
f 93 94 77
f 94 144 78
f 111 95 96
f 112 96 97
f 113 97 98
f 114 98 99
f 115 99 100
f 116 100 101
f 128 96 95
f 129 97 96
f 130 98 97
f 131 99 98
f 132 100 99
f 117 101 102
f 118 102 103
f 119 103 104
f 120 104 105
f 121 105 106
f 140 101 100
f 141 102 101
f 139 103 102
f 143 104 103
f 142 105 104
f 138 106 105
f 137 107 106
f 136 108 107
f 135 109 108
f 134 110 109
f 122 106 107
f 123 107 108
f 124 108 109
f 125 109 110
f 126 110 133
f 112 111 96
f 113 112 97
f 114 113 98
f 115 114 99
f 116 115 100
f 145 111 112
f 146 112 113
f 147 113 114
f 148 114 115
f 149 115 116
f 117 116 101
f 118 117 102
f 119 118 103
f 120 119 104
f 121 120 105
f 122 121 106
f 123 122 107
f 124 123 108
f 125 124 109
f 126 125 110
f 150 126 133
f 157 116 117
f 158 117 118
f 156 118 119
f 160 119 120
f 159 120 121
f 155 121 122
f 154 122 123
f 153 123 124
f 152 124 125
f 151 125 126
f 128 95 127
f 129 96 128
f 130 97 129
f 131 98 130
f 132 99 131
f 140 100 132
f 145 128 127
f 146 129 128
f 147 130 129
f 148 131 130
f 149 132 131
f 139 102 141
f 143 103 139
f 141 101 140
f 142 104 143
f 138 105 142
f 136 107 137
f 133 110 134
f 134 109 135
f 135 108 136
f 137 106 138
f 150 133 134
f 151 134 135
f 152 135 136
f 155 138 142
f 153 136 137
f 154 137 138
f 156 139 141
f 157 140 132
f 158 141 140
f 159 142 143
f 160 143 139
f 145 144 111
f 146 145 112
f 147 146 113
f 148 147 114
f 149 148 115
f 157 149 116
f 144 145 127
f 145 146 128
f 146 147 129
f 147 148 130
f 149 157 132
f 148 149 131
f 151 150 134
f 152 151 135
f 154 153 137
f 153 152 136
f 155 154 138
f 156 158 118
f 160 156 119
f 158 157 117
f 159 160 120
f 155 159 121
f 153 154 123
f 150 151 126
f 151 152 125
f 152 153 124
f 154 155 122
f 156 160 139
f 157 158 140
f 158 156 141
f 160 159 143
f 159 155 142
o speaker_allowance_d28x24
usemtl speaker_allowance_d28x24
v 15.177853 -82.881508 23.000000
v 14.359426 -81.777985 23.000000
v 17.118494 -84.822144 23.000000
v 18.222017 -85.640572 23.000000
v 16.100506 -83.899498 23.000000
v 13.653103 -80.599556 23.000000
v 13.065686 -79.357567 23.000000
v 12.602836 -78.063988 23.000000
v 12.269006 -76.731262 23.000000
v 12.067414 -75.372238 23.000000
v 19.400446 -86.346901 23.000000
v 20.642431 -86.934311 23.000000
v 21.936014 -87.397163 23.000000
v 23.268736 -87.730995 23.000000
v 24.627760 -87.932587 23.000000
v 15.177853 -82.881508 47.000000
v 14.359426 -81.777985 47.000000
v 17.118494 -84.822144 47.000000
v 18.222017 -85.640572 47.000000
v 16.100506 -83.899498 47.000000
v 13.653103 -80.599556 47.000000
v 13.065686 -79.357567 47.000000
v 12.602836 -78.063988 47.000000
v 12.269006 -76.731262 47.000000
v 12.067414 -75.372238 47.000000
v 19.400446 -86.346901 47.000000
v 20.642431 -86.934311 47.000000
v 21.936014 -87.397163 47.000000
v 23.268736 -87.730995 47.000000
v 24.627760 -87.932587 47.000000
v 12.000000 -74.000000 23.000000
v 12.067414 -72.627762 23.000000
v 12.269006 -71.268738 23.000000
v 12.602836 -69.936012 23.000000
v 13.065686 -68.642433 23.000000
v 13.653103 -67.400444 23.000000
v 14.359426 -66.222015 23.000000
v 15.177853 -65.118492 23.000000
v 16.100506 -64.100502 23.000000
v 17.118494 -63.177849 23.000000
v 18.222017 -62.359425 23.000000
v 19.400446 -61.653099 23.000000
v 20.642431 -61.065681 23.000000
v 21.936014 -60.602837 23.000000
v 23.268736 -60.269005 23.000000
v 24.627760 -60.067410 23.000000
v 12.000000 -74.000000 47.000000
v 12.067414 -72.627762 47.000000
v 12.269006 -71.268738 47.000000
v 12.602836 -69.936012 47.000000
v 13.065686 -68.642433 47.000000
v 13.653103 -67.400444 47.000000
v 14.359426 -66.222015 47.000000
v 15.177853 -65.118492 47.000000
v 16.100506 -64.100502 47.000000
v 17.118494 -63.177849 47.000000
v 18.222017 -62.359425 47.000000
v 19.400446 -61.653099 47.000000
v 20.642431 -61.065681 47.000000
v 21.936014 -60.602837 47.000000
v 23.268736 -60.269005 47.000000
v 24.627760 -60.067410 47.000000
v 26.000000 -88.000000 23.000000
v 27.372240 -87.932587 23.000000
v 28.731264 -87.730995 23.000000
v 30.063988 -87.397163 23.000000
v 31.357569 -86.934311 23.000000
v 32.599556 -86.346901 23.000000
v 33.777985 -85.640572 23.000000
v 34.881508 -84.822144 23.000000
v 35.899494 -83.899498 23.000000
v 36.822147 -82.881508 23.000000
v 37.640575 -81.777985 23.000000
v 38.346897 -80.599556 23.000000
v 38.934315 -79.357567 23.000000
v 39.397163 -78.063988 23.000000
v 39.730995 -76.731262 23.000000
v 39.932587 -75.372238 23.000000
v 26.000000 -88.000000 47.000000
v 27.372240 -87.932587 47.000000
v 28.731264 -87.730995 47.000000
v 30.063988 -87.397163 47.000000
v 31.357569 -86.934311 47.000000
v 32.599556 -86.346901 47.000000
v 33.777985 -85.640572 47.000000
v 34.881508 -84.822144 47.000000
v 35.899494 -83.899498 47.000000
v 36.822147 -82.881508 47.000000
v 37.640575 -81.777985 47.000000
v 38.346897 -80.599556 47.000000
v 38.934315 -79.357567 47.000000
v 39.397163 -78.063988 47.000000
v 39.730995 -76.731262 47.000000
v 39.932587 -75.372238 47.000000
v 26.000000 -60.000000 23.000000
v 27.372240 -60.067410 23.000000
v 28.731264 -60.269005 23.000000
v 30.063988 -60.602837 23.000000
v 31.357569 -61.065681 23.000000
v 32.599556 -61.653099 23.000000
v 40.000000 -74.000000 23.000000
v 39.932587 -72.627762 23.000000
v 39.730995 -71.268738 23.000000
v 39.397163 -69.936012 23.000000
v 38.934315 -68.642433 23.000000
v 38.346897 -67.400444 23.000000
v 35.899494 -64.100502 23.000000
v 33.777985 -62.359425 23.000000
v 34.881508 -63.177849 23.000000
v 37.640575 -66.222015 23.000000
v 36.822147 -65.118492 23.000000
v 26.000000 -60.000000 47.000000
v 27.372240 -60.067410 47.000000
v 28.731264 -60.269005 47.000000
v 30.063988 -60.602837 47.000000
v 31.357569 -61.065681 47.000000
v 32.599556 -61.653099 47.000000
v 40.000000 -74.000000 47.000000
v 39.932587 -72.627762 47.000000
v 39.730995 -71.268738 47.000000
v 39.397163 -69.936012 47.000000
v 38.934315 -68.642433 47.000000
v 38.346897 -67.400444 47.000000
v 35.899494 -64.100502 47.000000
v 33.777985 -62.359425 47.000000
v 34.881508 -63.177849 47.000000
v 37.640575 -66.222015 47.000000
v 36.822147 -65.118492 47.000000
f 176 161 165
f 177 162 161
f 178 163 164
f 179 164 171
f 180 165 163
f 196 166 167
f 194 168 169
f 193 169 170
f 195 167 168
f 197 162 166
f 198 161 162
f 201 164 163
f 199 165 161
f 200 163 165
f 182 167 166
f 183 168 167
f 181 166 162
f 184 169 168
f 185 170 169
f 207 191 170
f 186 171 172
f 187 172 173
f 188 173 174
f 189 174 175
f 190 175 223
f 202 171 164
f 203 172 171
f 204 173 172
f 205 174 173
f 206 175 174
f 255 223 175
f 177 181 162
f 176 177 161
f 178 180 163
f 179 178 164
f 180 176 165
f 181 182 166
f 183 184 168
f 182 183 167
f 184 185 169
f 185 207 170
f 212 182 181
f 210 184 183
f 209 185 184
f 211 183 182
f 213 181 177
f 214 177 176
f 217 178 179
f 215 176 180
f 216 180 178
f 187 186 172
f 186 179 171
f 188 187 173
f 189 188 174
f 190 189 175
f 239 190 223
f 218 179 186
f 219 186 187
f 220 187 188
f 221 188 189
f 222 189 190
f 272 190 239
f 192 170 191
f 193 170 192
f 194 169 193
f 195 168 194
f 196 167 195
f 197 166 196
f 198 162 197
f 199 161 198
f 200 165 199
f 201 163 200
f 202 164 201
f 208 192 191
f 209 193 192
f 210 194 193
f 211 195 194
f 212 196 195
f 213 197 196
f 214 198 197
f 215 199 198
f 216 200 199
f 217 201 200
f 203 171 202
f 204 172 203
f 205 173 204
f 206 174 205
f 255 175 206
f 218 202 201
f 219 203 202
f 220 204 203
f 221 205 204
f 222 206 205
f 272 255 206
f 207 208 191
f 208 209 192
f 209 210 193
f 210 211 194
f 211 212 195
f 212 213 196
f 208 207 185
f 209 208 185
f 210 209 184
f 211 210 183
f 212 211 182
f 213 212 181
f 214 213 177
f 215 214 176
f 216 215 180
f 217 216 178
f 218 217 179
f 213 214 197
f 214 215 198
f 215 216 199
f 216 217 200
f 217 218 201
f 219 218 186
f 220 219 187
f 221 220 188
f 222 221 189
f 272 222 190
f 218 219 202
f 219 220 203
f 220 221 204
f 221 222 205
f 222 272 206
f 239 223 224
f 240 224 225
f 241 225 226
f 242 226 227
f 243 227 228
f 244 228 229
f 256 224 223
f 257 225 224
f 258 226 225
f 259 227 226
f 260 228 227
f 245 229 230
f 246 230 231
f 247 231 232
f 248 232 233
f 249 233 234
f 268 229 228
f 269 230 229
f 267 231 230
f 271 232 231
f 270 233 232
f 266 234 233
f 265 235 234
f 264 236 235
f 263 237 236
f 262 238 237
f 250 234 235
f 251 235 236
f 252 236 237
f 253 237 238
f 254 238 261
f 240 239 224
f 241 240 225
f 242 241 226
f 243 242 227
f 244 243 228
f 273 239 240
f 274 240 241
f 275 241 242
f 276 242 243
f 277 243 244
f 245 244 229
f 246 245 230
f 247 246 231
f 248 247 232
f 249 248 233
f 250 249 234
f 251 250 235
f 252 251 236
f 253 252 237
f 254 253 238
f 278 254 261
f 285 244 245
f 286 245 246
f 284 246 247
f 288 247 248
f 287 248 249
f 283 249 250
f 282 250 251
f 281 251 252
f 280 252 253
f 279 253 254
f 256 223 255
f 257 224 256
f 258 225 257
f 259 226 258
f 260 227 259
f 268 228 260
f 273 256 255
f 274 257 256
f 275 258 257
f 276 259 258
f 277 260 259
f 267 230 269
f 271 231 267
f 269 229 268
f 270 232 271
f 266 233 270
f 264 235 265
f 261 238 262
f 262 237 263
f 263 236 264
f 265 234 266
f 278 261 262
f 279 262 263
f 280 263 264
f 283 266 270
f 281 264 265
f 282 265 266
f 284 267 269
f 285 268 260
f 286 269 268
f 287 270 271
f 288 271 267
f 273 272 239
f 274 273 240
f 275 274 241
f 276 275 242
f 277 276 243
f 285 277 244
f 272 273 255
f 273 274 256
f 274 275 257
f 275 276 258
f 277 285 260
f 276 277 259
f 279 278 262
f 280 279 263
f 282 281 265
f 281 280 264
f 283 282 266
f 284 286 246
f 288 284 247
f 286 285 245
f 287 288 248
f 283 287 249
f 281 282 251
f 278 279 254
f 279 280 253
f 280 281 252
f 282 283 250
f 284 288 267
f 285 286 268
f 286 284 269
f 288 287 271
f 287 283 270
o amp_allowance_22x21x14
usemtl amp_allowance_22x21x14
v 1.000000 -58.500000 11.000000
v 1.000000 -58.500000 25.000000
v 1.000000 -37.500000 11.000000
v 1.000000 -37.500000 25.000000
v 23.000000 -58.500000 11.000000
v 23.000000 -58.500000 25.000000
v 23.000000 -37.500000 11.000000
v 23.000000 -37.500000 25.000000
f 290 289 293
f 291 293 289
f 290 292 289
f 292 290 294
f 292 291 289
f 292 296 291
f 294 293 295
f 294 290 293
f 295 293 291
f 296 295 291
f 296 292 294
f 296 294 295
o mic_allowance_20x16x8
usemtl mic_allowance_20x16x8
v -34.000000 40.000000 39.000000
v -34.000000 40.000000 47.000000
v -34.000000 56.000000 39.000000
v -34.000000 56.000000 47.000000
v -14.000000 40.000000 39.000000
v -14.000000 40.000000 47.000000
v -14.000000 56.000000 39.000000
v -14.000000 56.000000 47.000000
f 298 297 301
f 299 301 297
f 298 300 297
f 300 298 302
f 300 299 297
f 300 304 299
f 302 301 303
f 302 298 301
f 303 301 299
f 304 303 299
f 304 300 302
f 304 302 303
o power_cable_bay_12x25x22
usemtl power_cable_bay_12x25x22
v 41.000000 7.500000 7.000000
v 41.000000 7.500000 29.000000
v 41.000000 32.500000 7.000000
v 41.000000 32.500000 29.000000
v 53.000000 7.500000 7.000000
v 53.000000 7.500000 29.000000
v 53.000000 32.500000 7.000000
v 53.000000 32.500000 29.000000
f 306 305 309
f 307 309 305
f 306 308 305
f 308 306 310
f 308 307 305
f 308 312 307
f 310 309 311
f 310 306 309
f 311 309 307
f 312 311 307
f 312 308 310
f 312 310 311
